<?xml version="1.0" encoding="utf-8"?>
<!-- Generator: Adobe Illustrator 25.2.3, SVG Export Plug-In . SVG Version: 6.00 Build 0)  -->
<svg version="1.1" id="Capa_1" xmlns="http://www.w3.org/2000/svg" xmlns:xlink="http://www.w3.org/1999/xlink" x="0px" y="0px"
	 viewBox="0 0 39.7 39" style="enable-background:new 0 0 39.7 39;" xml:space="preserve">
<style type="text/css">
	.st0{fill:#00C570;}
</style>
<path id="check-mark" class="st0" d="M28.8,13.4c0.6,0.6,0.6,1.6,0,2.1c0,0,0,0,0,0L18.6,25.7c-0.6,0.6-1.6,0.6-2.1,0c0,0,0,0,0,0
	l-4.8-4.8c-0.6-0.6-0.6-1.6,0.1-2.1c0.6-0.6,1.5-0.6,2.1,0l3.8,3.8l9.1-9.1C27.2,12.8,28.2,12.8,28.8,13.4
	C28.8,13.4,28.8,13.4,28.8,13.4z M39.6,19.6c0,10.7-8.7,19.4-19.4,19.4S0.8,30.3,0.8,19.6S9.5,0.2,20.2,0.2c0,0,0,0,0,0
	C30.9,0.2,39.6,8.8,39.6,19.6C39.6,19.6,39.6,19.6,39.6,19.6z M36.6,19.6c0-9-7.3-16.4-16.4-16.4c-9,0-16.4,7.3-16.4,16.4
	c0,9,7.3,16.4,16.4,16.4C29.2,36,36.6,28.6,36.6,19.6C36.6,19.6,36.6,19.6,36.6,19.6z"/>
</svg>
