<svg xmlns="http://www.w3.org/2000/svg" width="27.62" height="27.62" viewBox="0 0 27.62 27.62">
  <g id="instagram" transform="translate(0)">
    <path id="Trazado_36" data-name="Trazado 36" d="M212.287,209.643A2.643,2.643,0,1,1,209.643,207,2.643,2.643,0,0,1,212.287,209.643Zm0,0" transform="translate(-195.834 -195.833)" fill="#fff"/>
    <path id="Trazado_37" data-name="Trazado 37" d="M148.168,137.313a2.626,2.626,0,0,0-1.5-1.5,4.388,4.388,0,0,0-1.472-.273c-.836-.038-1.087-.046-3.2-.046s-2.368.008-3.2.046a4.391,4.391,0,0,0-1.472.273,2.627,2.627,0,0,0-1.505,1.5,4.389,4.389,0,0,0-.273,1.473c-.038.836-.046,1.087-.046,3.2s.008,2.368.046,3.2a4.387,4.387,0,0,0,.273,1.472,2.626,2.626,0,0,0,1.5,1.5,4.383,4.383,0,0,0,1.473.273c.836.038,1.087.046,3.2.046s2.368-.008,3.2-.046a4.383,4.383,0,0,0,1.473-.273,2.626,2.626,0,0,0,1.5-1.5,4.391,4.391,0,0,0,.273-1.472c.038-.836.046-1.087.046-3.2s-.008-2.368-.046-3.2A4.382,4.382,0,0,0,148.168,137.313Zm-6.182,8.749a4.072,4.072,0,1,1,4.072-4.072A4.072,4.072,0,0,1,141.986,146.062Zm4.233-7.353a.952.952,0,1,1,.952-.952A.952.952,0,0,1,146.219,138.708Zm0,0" transform="translate(-128.176 -128.18)" fill="#fff"/>
    <path id="Trazado_38" data-name="Trazado 38" d="M13.81,0A13.81,13.81,0,1,0,27.62,13.81,13.811,13.811,0,0,0,13.81,0Zm7.882,17.079A5.818,5.818,0,0,1,21.323,19,4.055,4.055,0,0,1,19,21.323a5.822,5.822,0,0,1-1.925.369c-.846.039-1.116.048-3.269.048s-2.424-.009-3.27-.048a5.822,5.822,0,0,1-1.925-.369A4.055,4.055,0,0,1,6.3,19a5.817,5.817,0,0,1-.369-1.925c-.039-.846-.048-1.116-.048-3.27s.009-2.424.048-3.269A5.819,5.819,0,0,1,6.3,8.615,4.057,4.057,0,0,1,8.616,6.3a5.823,5.823,0,0,1,1.925-.369c.846-.039,1.116-.048,3.269-.048s2.424.009,3.269.048A5.825,5.825,0,0,1,19,6.3a4.056,4.056,0,0,1,2.319,2.319,5.817,5.817,0,0,1,.369,1.925c.039.846.048,1.116.048,3.269S21.731,16.233,21.692,17.079Zm0,0" transform="translate(0)" fill="#fff"/>
  </g>
</svg>
