<svg xmlns="http://www.w3.org/2000/svg" width="27.62" height="27.62" viewBox="0 0 27.62 27.62">
  <path id="linkedin" d="M13.81,0A13.81,13.81,0,1,0,27.62,13.81,13.811,13.811,0,0,0,13.81,0ZM9.8,20.877H6.434V10.758H9.8ZM8.115,9.376H8.093a1.753,1.753,0,1,1,.044-3.5,1.754,1.754,0,1,1-.022,3.5Zm13.809,11.5H18.561V15.463c0-1.36-.487-2.288-1.7-2.288a1.841,1.841,0,0,0-1.726,1.23,2.3,2.3,0,0,0-.111.821v5.651H11.658s.044-9.169,0-10.119h3.363v1.433a3.339,3.339,0,0,1,3.031-1.67c2.213,0,3.872,1.446,3.872,4.554Zm0,0" fill="#fff"/>
</svg>
