<svg xmlns="http://www.w3.org/2000/svg" width="158.74" height="37.763" viewBox="0 0 158.74 37.763">
  <g id="Logo" transform="translate(-133.436 -251.583)">
    <path id="Trazado_1" data-name="Trazado 1" d="M439.326,269.012a14.648,14.648,0,1,0,14.707,14.648A14.521,14.521,0,0,0,439.326,269.012Zm0,22.725a8.079,8.079,0,1,1,7.9-8.077A7.728,7.728,0,0,1,439.326,291.737Z" transform="translate(-162.357 -9.461)" fill="#fff" stroke="#fff" stroke-width="1"/>
    <path id="Trazado_2" data-name="Trazado 2" d="M166.75,272.788l-5.425,20.239-6.158-20.239H149.6l2.044,6.495-4.562,14.757-5.639-21.252H134.12l8.789,27.63h6.855l4.294-13.57,4.312,13.57h6.794l8.845-27.63Z" transform="translate(0 -11.572)" fill="#fff" stroke="#fff" stroke-width="1"/>
    <path id="Trazado_3" data-name="Trazado 3" d="M262.465,283.083c-.263-8.153-6.118-14.071-13.921-14.071-8.625,0-14.885,6.161-14.885,14.648,0,8.625,6.219,14.648,15.123,14.648a13.568,13.568,0,0,0,9.68-3.483l-5.563-2.606a8.508,8.508,0,0,1-4,1.006,7.8,7.8,0,0,1-7.967-5.686l-.418-1.367h21.962Zm-21.992-1.578.424-1.37c1.064-3.434,3.758-5.325,7.588-5.325a6.969,6.969,0,0,1,7.188,5.361l.363,1.335Z" transform="translate(-55.631 -9.461)" fill="#fff" stroke="#fff" stroke-width="1"/>
    <path id="Trazado_4" data-name="Trazado 4" d="M340.414,283.083c-.263-8.153-6.118-14.071-13.921-14.071-8.625,0-14.885,6.161-14.885,14.648,0,8.625,6.219,14.648,15.123,14.648a13.568,13.568,0,0,0,9.68-3.483l-5.563-2.606a8.508,8.508,0,0,1-4,1.006,7.8,7.8,0,0,1-7.967-5.686l-.418-1.367h21.962Zm-21.992-1.578.424-1.37c1.064-3.434,3.758-5.325,7.588-5.325a6.969,6.969,0,0,1,7.188,5.361l.363,1.335Z" transform="translate(-99.196 -9.461)" fill="#fff" stroke="#fff" stroke-width="1"/>
    <rect id="Rectángulo_1" data-name="Rectángulo 1" width="6.809" height="36.763" transform="translate(248.282 252.083)" fill="#fff" stroke="#fff" stroke-width="1"/>
  </g>
</svg>
