<svg xmlns="http://www.w3.org/2000/svg" width="179.559" height="41.897" viewBox="0 0 179.559 41.897">
  <g id="Logo" transform="translate(-134.12 -252.083)">
    <path id="Trazado_1" data-name="Trazado 1" d="M441.38,269.012a16.694,16.694,0,1,0,16.761,16.693A16.549,16.549,0,0,0,441.38,269.012Zm0,25.9a9.207,9.207,0,1,1,9-9.205A8.807,8.807,0,0,1,441.38,294.911Z" transform="translate(-144.462 -8.419)" fill="#3721a6"/>
    <path id="Trazado_2" data-name="Trazado 2" d="M171.306,272.788l-6.183,23.065-7.018-23.065h-6.345l2.33,7.4-5.2,16.818-6.426-24.22H134.12l10.016,31.488h7.812l4.894-15.465,4.914,15.465H169.5l10.08-31.488Z" transform="translate(0 -10.297)" fill="#3721a6"/>
    <path id="Trazado_3" data-name="Trazado 3" d="M266.488,285.048c-.3-9.292-6.972-16.036-15.865-16.036-9.829,0-16.964,7.021-16.964,16.693,0,9.829,7.087,16.693,17.235,16.693,4.542,0,8.322-1.367,11.032-3.97l-6.34-2.971a9.7,9.7,0,0,1-4.557,1.147c-4.511,0-7.821-2.362-9.08-6.479l-.477-1.557H266.5Zm-25.064-1.8.484-1.562c1.212-3.914,4.283-6.069,8.648-6.069a7.942,7.942,0,0,1,8.192,6.109l.414,1.521Z" transform="translate(-49.5 -8.419)" fill="#3721a6"/>
    <path id="Trazado_4" data-name="Trazado 4" d="M344.437,285.048c-.3-9.292-6.972-16.036-15.865-16.036-9.829,0-16.964,7.021-16.964,16.693,0,9.829,7.088,16.693,17.235,16.693,4.542,0,8.322-1.367,11.032-3.97l-6.34-2.971a9.7,9.7,0,0,1-4.557,1.147c-4.511,0-7.821-2.362-9.08-6.479l-.477-1.557h25.029Zm-25.064-1.8.484-1.562c1.212-3.914,4.283-6.069,8.648-6.069a7.942,7.942,0,0,1,8.192,6.109l.414,1.521Z" transform="translate(-88.263 -8.419)" fill="#3721a6"/>
    <rect id="Rectángulo_1" data-name="Rectángulo 1" width="7.759" height="41.897" transform="translate(264.225 252.083)" fill="#3721a6"/>
  </g>
</svg>
