<svg xmlns="http://www.w3.org/2000/svg" width="27.62" height="27.62" viewBox="0 0 27.62 27.62">
  <path id="tiktok" d="M13.81,0A13.81,13.81,0,1,0,27.62,13.81,13.812,13.812,0,0,0,13.81,0Zm6.928,10.566v1.87a6.525,6.525,0,0,1-3.993-1.357l.013,5.756a4.821,4.821,0,0,1-1.446,3.431,4.922,4.922,0,0,1-2.749,1.375,5.068,5.068,0,0,1-.743.055,4.938,4.938,0,0,1-3.027-1.023,5.021,5.021,0,0,1-.465-.406,4.839,4.839,0,0,1-.218-6.673,4.938,4.938,0,0,1,3.71-1.659,5.068,5.068,0,0,1,.743.055V14.6a2.328,2.328,0,1,0,1.6,2.212l0-3.854V5.924h2.575a3.986,3.986,0,0,0,3.988,3.949h.007v.694Z" fill="#fff"/>
</svg>
