<svg xmlns="http://www.w3.org/2000/svg" width="28.013" height="28.013" viewBox="0 0 28.013 28.013">
  <path id="twitter" d="M14.007,0A14.007,14.007,0,1,0,28.013,14.007,14.008,14.008,0,0,0,14.007,0Zm6.4,10.921q.009.207.009.415a9.085,9.085,0,0,1-9.147,9.147h0a9.1,9.1,0,0,1-4.928-1.444,6.539,6.539,0,0,0,.767.044A6.451,6.451,0,0,0,11.1,17.708a3.218,3.218,0,0,1-3-2.233,3.2,3.2,0,0,0,1.452-.055,3.216,3.216,0,0,1-2.579-3.151c0-.015,0-.028,0-.041a3.193,3.193,0,0,0,1.456.4,3.218,3.218,0,0,1-1-4.292A9.127,9.127,0,0,0,14.053,11.7a3.217,3.217,0,0,1,5.478-2.932,6.448,6.448,0,0,0,2.041-.78,3.227,3.227,0,0,1-1.414,1.778,6.412,6.412,0,0,0,1.846-.506,6.533,6.533,0,0,1-1.6,1.665Zm0,0" fill="#fff"/>
</svg>
