<svg id="youtube" xmlns="http://www.w3.org/2000/svg" width="28.013" height="28.012" viewBox="0 0 28.013 28.012">
  <path id="Trazado_39" data-name="Trazado 39" d="M224.113,213.287l4.556-2.624-4.556-2.624Zm0,0" transform="translate(-211.851 -196.657)" fill="#fff"/>
  <path id="Trazado_40" data-name="Trazado 40" d="M14.006,0A14.006,14.006,0,1,0,28.013,14.006,14.008,14.008,0,0,0,14.006,0Zm8.752,14.021a23.117,23.117,0,0,1-.36,4.21,2.193,2.193,0,0,1-1.543,1.543,53.235,53.235,0,0,1-6.849.361,51.33,51.33,0,0,1-6.849-.375,2.193,2.193,0,0,1-1.543-1.543,23.015,23.015,0,0,1-.361-4.21A23.1,23.1,0,0,1,5.615,9.8,2.238,2.238,0,0,1,7.158,8.239a53.235,53.235,0,0,1,6.849-.361,51.221,51.221,0,0,1,6.849.375A2.193,2.193,0,0,1,22.4,9.8a21.937,21.937,0,0,1,.36,4.224Zm0,0" transform="translate(0)" fill="#fff"/>
</svg>
